#!OML:ASF E:\motion texture\Top Level 1\Subject 1\Session 1\male.ASF
:FULLY-SPECIFIED
:DEGREES
280
root 7.80486 17.3831 9.18272 20.8052 -72.6258 -10.7763
lowerback 7.53802 -0.304153 -5.23375
upperback 2.51077 -0.983752 -3.87412
thorax -1.61143 -0.53598 -0.977369
lowerneck -5.68454 -14.1835 -18.5919
upperneck -2.69363 -19.2316 27.3781
head 4.96178 -9.39489 9.87823
rclavicle 2.62396e-014 3.97569e-014
rhumerus -6.62029 20.9297 -67.864
rradius 96.7149
rwrist 5.72306
rhand -30.4599 -47.8999
rfingers 7.12502
rthumb -3.76156 -77.8465
lclavicle 2.62396e-014 3.97569e-014
lhumerus -24.5137 -7.56986 80.4925
lradius 63.6386
lwrist 5.61057
lhand -1.09507 26.5409
lfingers 7.12502
lthumb 24.5411 54.9882
rfemur -41.6299 -6.98081 21.9096
rtibia 24.8667
rfoot -1.29786 -15.3696
rtoes 5.56225
lfemur -12.3231 -2.63942 -4.61926
ltibia 40.0583
lfoot -9.4191 6.07368
ltoes -30.8817
281
root 7.60422 17.3761 9.18008 20.752 -73.1681 -11.1344
lowerback 7.25816 -0.484479 -5.12846
upperback 2.34748 -1.19513 -3.81255
thorax -1.62155 -0.636823 -0.956083
lowerneck -5.93035 -14.0187 -18.4235
upperneck -2.09572 -19.0373 26.9171
head 5.05122 -9.2571 9.71468
rclavicle 7.15625e-015 -3.33958e-014
rhumerus -5.94893 19.6808 -65.3883
rradius 98.4583
rwrist 5.63686
rhand -30.8102 -48.1112
rfingers 7.12502
rthumb -4.09985 -78.0515
lclavicle 7.15625e-015 -3.33958e-014
lhumerus -25.1886 -6.74356 79.6585
lradius 63.0383
lwrist 4.61635
lhand -1.5772 26.1564
lfingers 7.12502
lthumb 24.0789 54.6657
rfemur -41.1912 -6.62642 22.1723
rtibia 25.4206
rfoot -1.23104 -14.7981
rtoes 6.04957
lfemur -11.5517 -2.75657 -4.63854
ltibia 40.5965
lfoot -8.67333 6.03278
ltoes -30.7451
282
root 7.40322 17.3701 9.17584 20.7684 -73.7056 -11.5608
lowerback 6.98851 -0.660999 -5.00525
upperback 2.18391 -1.40143 -3.74085
thorax -1.63786 -0.73512 -0.935863
lowerneck -6.176 -13.8533 -18.2492
upperneck -1.49836 -18.839 26.4419
head 5.13959 -9.11915 9.54657
rclavicle -1.51076e-014 5.08889e-014
rhumerus -5.14897 18.3743 -62.8772
rradius 100.066
rwrist 5.63497
rhand -31.1377 -48.2595
rfingers 7.12502
rthumb -4.4161 -78.1934
lclavicle -1.51076e-014 5.08889e-014
lhumerus -25.8392 -5.90738 78.8084
lradius 62.3327
lwrist 3.6158
lhand -2.07451 25.8224
lfingers 7.12502
lthumb 23.6019 54.3939
rfemur -40.7359 -6.28944 22.4694
rtibia 26.0206
rfoot -1.20359 -14.2262
rtoes 6.56516
lfemur -10.8236 -2.86291 -4.65334
ltibia 41.1637
lfoot -7.90768 5.96803
ltoes -30.5205
283
root 7.20208 17.3652 9.17002 20.8594 -74.2363 -12.058
lowerback 6.728 -0.832607 -4.86576
upperback 2.02084 -1.60123 -3.6588
thorax -1.65906 -0.830228 -0.915538
lowerneck -6.42086 -13.6888 -18.0686
upperneck -0.904187 -18.6385 25.9533
head 5.22659 -8.98206 9.37377
rclavicle 1.98785e-015 4.77083e-015
rhumerus -4.2276 16.9981 -60.3503
rradius 101.54
rwrist 5.71939
rhand -31.4401 -48.3504
rfingers 7.12502
rthumb -4.70812 -78.2781
lclavicle 1.98785e-015 4.77083e-015
lhumerus -26.4643 -5.0678 77.9476
lradius 61.5244
lwrist 2.60757
lhand -2.58568 25.5364
lfingers 7.12502
lthumb 23.1115 54.1702
rfemur -40.2632 -5.96802 22.7954
rtibia 26.655
rfoot -1.2108 -13.6623
rtoes 7.10484
lfemur -10.1434 -2.9574 -4.66355
ltibia 41.7581
lfoot -7.13015 5.88
ltoes -30.2089
284
root 7.00105 17.3615 9.16267 21.0363 -74.7592 -12.635
lowerback 6.47554 -0.998022 -4.70981
upperback 1.85826 -1.79279 -3.5668
thorax -1.68464 -0.921328 -0.895676
lowerneck -6.66113 -13.5254 -17.8804
upperneck -0.316809 -18.4363 25.4531
head 5.31094 -8.84667 9.1968
rclavicle -7.15625e-015 1.11319e-014
rhumerus -3.19393 15.5443 -57.8289
rradius 102.886
rwrist 5.88938
rhand -31.7174 -48.3962
rfingers 7.12502
rthumb -4.97589 -78.3177
lclavicle -7.15625e-015 1.11319e-014
lhumerus -27.0645 -4.23199 77.0794
lradius 60.6173
lwrist 1.5938
lhand -3.10562 25.2959
lfingers 7.12502
lthumb 22.6126 53.9913
rfemur -39.773 -5.65902 23.1469
rtibia 27.3157
rfoot -1.25353 -13.113
rtoes 7.67288
lfemur -9.51504 -3.03895 -4.66794
ltibia 42.3775
lfoot -6.34935 5.77142
ltoes -29.8144
285
root 6.80022 17.3591 9.15366 21.3062 -75.2707 -13.2986
lowerback 6.23421 -1.15865 -4.53812
upperback 1.69578 -1.97832 -3.46493
thorax -1.71674 -1.00951 -0.875591
lowerneck -6.8972 -13.3628 -17.6861
upperneck 0.264471 -18.2323 24.9432
head 5.39333 -8.7128 9.01654
rclavicle -7.95139e-016 -1.90833e-014
rhumerus -2.05783 14.0097 -55.338
rradius 104.11
rwrist 6.14435
rhand -31.9699 -48.4034
rfingers 7.12502
rthumb -5.21967 -78.3191
lclavicle -7.95139e-016 -1.90833e-014
lhumerus -27.6435 -3.40066 76.2051
lradius 59.6174
lwrist 0.57459
lhand -3.62538 25.0989
lfingers 7.12502
lthumb 22.1137 53.8543
rfemur -39.2603 -5.35951 23.5204
rtibia 27.9891
rfoot -1.3323 -12.5875
rtoes 8.27429
lfemur -8.93967 -3.1077 -4.66341
ltibia 43.019
lfoot -5.57542 5.642
ltoes -29.3446
286
root 6.59985 17.358 9.14313 21.6757 -75.7694 -14.0526
lowerback 6.00199 -1.31361 -4.35158
upperback 1.53391 -2.15658 -3.35342
thorax -1.75374 -1.09423 -0.855042
lowerneck -7.12874 -13.2023 -17.4862
upperneck 0.837618 -18.0281 24.4249
head 5.47374 -8.58133 8.8332
rclavicle -6.36111e-015 5.24792e-014
rhumerus -0.828578 12.3875 -52.8968
rradius 105.223
rwrist 6.47845
rhand -32.2014 -48.3851
rfingers 7.12502
rthumb -5.44319 -78.2952
lclavicle -6.36111e-015 5.24792e-014
lhumerus -28.1994 -2.57871 75.3295
lradius 58.5299
lwrist -0.445741
lhand -4.14341 24.945
lfingers 7.12502
lthumb 21.6162 53.7584
rfemur -38.7272 -5.07037 23.9125
rtibia 28.6663
rfoot -1.44302 -12.0852
rtoes 8.87265
lfemur -8.4224 -3.1633 -4.65084
ltibia 43.6819
lfoot -4.81849 5.49541
ltoes -28.807
287
root 6.4002 17.3582 9.13114 22.1536 -76.2531 -14.9024
lowerback 5.77849 -1.46242 -4.1491
upperback 1.37105 -2.32696 -3.23401
thorax -1.79726 -1.17519 -0.83634
lowerneck -7.35107 -13.0439 -17.2815
upperneck 1.40005 -17.8243 23.903
head 5.55149 -8.45301 8.64864
rclavicle 1.55052e-014 -3.81667e-014
rhumerus 0.479523 10.6732 -50.5273
rradius 106.234
rwrist 6.88611
rhand -32.4142 -48.3491
rfingers 7.12502
rthumb -5.64865 -78.2538
lclavicle 1.55052e-014 -3.81667e-014
lhumerus -28.7326 -1.77115 74.4548
lradius 57.3599
lwrist -1.4643
lhand -4.65725 24.8227
lfingers 7.12502
lthumb 21.1227 53.6921
rfemur -38.1754 -4.79156 24.3207
rtibia 29.3388
rfoot -1.58876 -11.6092
rtoes 9.4744
lfemur -7.96807 -3.20537 -4.62904
ltibia 44.362
lfoot -4.08616 5.33416
ltoes -28.2152
288
root 6.20138 17.3599 9.11769 22.7387 -76.7197 -15.8477
lowerback 5.56403 -1.60556 -3.93502
upperback 1.20981 -2.49028 -3.10585
thorax -1.8446 -1.2529 -0.816067
lowerneck -7.56893 -12.8888 -17.0727
upperneck 1.95216 -17.6222 23.3758
head 5.62761 -8.32807 8.46187
rclavicle -4.37326e-015 -1.59028e-015
rhumerus 1.86101 8.86514 -48.2476
rradius 107.156
rwrist 7.36065
rhand -32.6197 -48.3042
rfingers 7.12502
rthumb -5.84705 -78.2035
lclavicle -4.37326e-015 -1.59028e-015
lhumerus -29.2428 -0.975603 73.5854
lradius 56.1176
lwrist -2.47685
lhand -5.16173 24.7414
lfingers 7.12502
lthumb 20.638 53.6641
rfemur -37.6004 -4.52206 24.7405
rtibia 29.995
rfoot -1.77041 -11.1625
rtoes 10.0661
lfemur -7.57615 -3.23535 -4.59898
ltibia 45.0568
lfoot -3.38839 5.16103
ltoes -27.576
289
root 6.00356 17.3629 9.1028 23.4376 -77.1675 -16.8939
lowerback 5.35936 -1.74151 -3.70812
upperback 1.04846 -2.64466 -2.97189
thorax -1.89819 -1.32644 -0.797883
lowerneck -7.77447 -12.7376 -16.8576
upperneck 2.49101 -17.4237 22.8467
head 5.70043 -8.2079 8.27377
rclavicle 1.51076e-014 1.27222e-014
rhumerus 3.29679 6.96103 -46.0804
rradius 108.001
rwrist 7.89526
rhand -32.8152 -48.2537
rfingers 7.12502
rthumb -6.0358 -78.1478
lclavicle 1.51076e-014 1.27222e-014
lhumerus -29.7298 -0.199467 72.7216
lradius 54.8085
lwrist -3.4804
lhand -5.64638 24.6949
lfingers 7.12502
lthumb 20.1723 53.6676
rfemur -37.0016 -4.26022 25.1697
rtibia 30.6254
rfoot -1.98778 -10.7471
rtoes 10.639
lfemur -7.24849 -3.25302 -4.55974
ltibia 45.7635
lfoot -2.73633 4.97993
ltoes -26.9088
290
root 5.80696 17.3674 9.08657 24.2558 -77.596 -18.0454
lowerback 5.16321 -1.87006 -3.47056
upperback 0.887124 -2.78983 -2.83175
thorax -1.95714 -1.39572 -0.780164
lowerneck -7.96512 -12.5899 -16.6394
upperneck 3.01448 -17.2283 22.3177
head 5.76928 -8.09249 8.08573
rclavicle -1.35174e-014 -6.36111e-015
rhumerus 4.77871 4.96419 -44.0399
rradius 108.784
rwrist 8.48232
rhand -33.018 -48.2027
rfingers 7.12502
rthumb -6.23155 -78.091
lclavicle -1.35174e-014 -6.36111e-015
lhumerus -30.195 0.560838 71.8674
lradius 53.4421
lwrist -4.47489
lhand -6.10972 24.6783
lfingers 7.12502
lthumb 19.7269 53.6973
rfemur -36.3795 -4.00545 25.6063
rtibia 31.2222
rfoot -2.23825 -10.3614
rtoes 11.1923
lfemur -6.9865 -3.25747 -4.51149
ltibia 46.4785
lfoot -2.13531 4.79436
ltoes -26.2056
291
root 5.61153 17.3733 9.06889 25.1835 -78.0004 -19.2917
lowerback 4.97639 -1.99179 -3.22522
upperback 0.727347 -2.92673 -2.68709
thorax -2.02023 -1.46129 -0.76283
lowerneck -8.14841 -12.4483 -16.4172
upperneck 3.52452 -17.0398 21.7909
head 5.83682 -7.98293 7.89722
rclavicle 1.90833e-014 -3.18055e-015
rhumerus 6.30151 2.87554 -42.1393
rradius 109.515
rwrist 9.11
rhand -33.2172 -48.1607
rfingers 7.12502
rthumb -6.42387 -78.0433
lclavicle 1.90833e-014 -3.18055e-015
lhumerus -30.634 1.30292 71.0238
lradius 52.0267
lwrist -5.45704
lhand -6.55029 24.6961
lfingers 7.12502
lthumb 19.3033 53.7581
rfemur -35.7305 -3.75731 26.0462
rtibia 31.7736
rfoot -2.5195 -10.0097
rtoes 11.7305
lfemur -6.79099 -3.25099 -4.45417
ltibia 47.1988
lfoot -1.59248 4.60515
ltoes -25.4737
292
root 5.41765 17.3807 9.04999 26.2262 -78.3815 -20.6371
lowerback 4.79824 -2.10508 -2.97283
upperback 0.568322 -3.0532 -2.53782
thorax -2.08792 -1.52205 -0.745443
lowerneck -8.31713 -12.3134 -16.1948
upperneck 4.01687 -16.859 21.2691
head 5.90122 -7.88005 7.71004
rclavicle 1.41137e-014 -9.54166e-015
rhumerus 7.8552 0.699238 -40.3907
rradius 110.206
rwrist 9.77101
rhand -33.4194 -48.1231
rfingers 7.12502
rthumb -6.61911 -77.9997
lclavicle 1.41137e-014 -9.54166e-015
lhumerus -31.0495 2.02615 70.195
lradius 50.5737
lwrist -6.42593
lhand -6.96508 24.7418
lfingers 7.12502
lthumb 18.9044 53.8431
rfemur -35.0581 -3.51691 26.4885
rtibia 32.2764
rfoot -2.82754 -9.68731
rtoes 12.2455
lfemur -6.66367 -3.23277 -4.3892
ltibia 47.9208
lfoot -1.11238 4.4172
ltoes -24.7288
293
root 5.22564 17.3893 9.0301 27.378 -78.7388 -22.0747
lowerback 4.631 -2.21023 -2.71239
upperback 0.408921 -3.16975 -2.38611
thorax -2.16278 -1.57831 -0.730535
lowerneck -8.47296 -12.1847 -15.971
upperneck 4.49315 -16.6854 20.7521
head 5.96284 -7.78338 7.52384
rclavicle 3.4191e-014 7.4743e-014
rhumerus 9.43425 -1.55606 -38.8068
rradius 110.87
rwrist 10.4548
rhand -33.6265 -48.0982
rfingers 7.12502
rthumb -6.81902 -77.9684
lclavicle 3.4191e-014 7.4743e-014
lhumerus -31.4402 2.73274 69.3822
lradius 49.092
lwrist -7.37937
lhand -7.35281 24.8255
lfingers 7.12502
lthumb 18.5315 53.9628
rfemur -34.3651 -3.28741 26.9308
rtibia 32.7263
rfoot -3.156 -9.39054
rtoes 12.7254
lfemur -6.60652 -3.20374 -4.31971
ltibia 48.6416
lfoot -0.701756 4.23427
ltoes -23.986
